<svg width="53" height="53" viewBox="0 0 53 53" fill="none" xmlns="http://www.w3.org/2000/svg">
    <g clip-path="url(#clip0)">
        <rect width="52.9559" height="52.9559" transform="translate(0.00012207)" fill="#FEB29A"/>
        <path d="M19.7007 33.2142C23.6677 37.1812 28.5134 40.2623 34.1352 42.5523C38.0387 44.1423 41.3352 42.4819 42.6834 38.4731C42.9252 37.7536 42.9419 37.049 42.6817 36.3418C42.053 34.6323 36.0942 30.3032 34.3114 30.206C32.944 30.1318 32.2035 31.0607 31.5774 31.9833C30.3943 33.7247 28.8942 33.7345 27.221 32.9903C25.5376 32.2409 24.0644 31.2799 22.8497 30.0652C21.6346 28.8501 20.6736 27.3769 19.9247 25.6935C19.18 24.0203 19.1898 22.5206 20.9317 21.3371C21.8538 20.7114 22.7832 19.9709 22.7085 18.6035C22.6117 16.8207 18.2826 10.8619 16.5731 10.2332C15.8655 9.97304 15.1609 9.98968 14.4414 10.2315C10.4326 11.5797 8.77262 14.8762 10.3627 18.7797C12.6526 24.4016 15.7337 29.2472 19.7007 33.2142Z" fill="black"/>
        <path d="M27.4241 12.2325C28.2976 12.0938 29.1949 12.0627 30.0902 12.1408C32.8497 12.3796 35.4753 13.6178 37.4838 15.6262C39.4321 17.5745 40.6306 20.0939 40.8584 22.7204C40.936 23.6174 40.8984 24.5173 40.7462 25.3938C40.6379 26.0174 41.0558 26.6111 41.6794 26.7194C41.7459 26.7309 41.812 26.7365 41.8769 26.7365C42.4241 26.7365 42.9082 26.3436 43.005 25.7862C43.1914 24.7148 43.2374 23.6165 43.1428 22.5221C42.8685 19.3591 41.4346 16.3342 39.1054 14.005C36.7156 11.6153 33.5846 10.1421 30.2885 9.85592C29.2073 9.76251 28.1227 9.80005 27.0649 9.96767C26.4397 10.067 26.0131 10.6544 26.1121 11.2796C26.2111 11.9049 26.7979 12.3314 27.4241 12.2325Z" fill="black"/>
        <path d="M38.017 25.7304C38.066 25.7364 38.1146 25.7394 38.1633 25.7394C38.7318 25.7394 39.2253 25.3163 39.2991 24.7375C39.3775 24.1174 39.3899 23.4836 39.3353 22.854C39.1387 20.5854 38.0971 18.4029 36.403 16.7088C34.6484 14.9541 32.3597 13.8729 29.9584 13.6648C29.2828 13.6064 28.6042 13.6196 27.9414 13.704C27.3132 13.7842 26.8692 14.3587 26.9494 14.9866C27.0295 15.6148 27.6058 16.0584 28.2319 15.9786C28.733 15.9147 29.2474 15.9048 29.7605 15.9492C31.6248 16.1109 33.4081 16.9562 34.7814 18.33C36.0947 19.6432 36.9008 21.3203 37.0509 23.0519C37.0914 23.5198 37.0825 23.9894 37.0245 24.4483C36.9443 25.0766 37.3891 25.6503 38.017 25.7304Z" fill="black"/>
        <path d="M34.3148 25.0476C34.3412 25.0497 34.3673 25.0506 34.3937 25.0506C34.9912 25.0506 35.4954 24.587 35.5363 23.9817C35.5542 23.7194 35.5517 23.4503 35.5282 23.1816C35.2736 20.2438 32.6821 17.7346 29.6283 17.4702C29.3792 17.4484 29.1297 17.4429 28.8866 17.4527C28.2536 17.4787 27.7618 18.0127 27.7879 18.6452C27.8143 19.2781 28.3491 19.7691 28.9808 19.7435C29.1271 19.7375 29.2785 19.7413 29.4304 19.7546C31.3416 19.9201 33.0877 21.5805 33.2438 23.3799C33.257 23.5309 33.2587 23.681 33.2489 23.8261C33.2054 24.4577 33.6827 25.0049 34.3148 25.0476Z" fill="black"/>
        <path d="M0.00012207 0V52.9559H52.956V0H0.00012207ZM49.6804 49.6803H3.27574V3.27562H49.6804V49.6803Z" fill="black"/>
    </g>
    <defs>
        <clipPath id="clip0">
            <rect width="52.9559" height="52.9559" fill="white" transform="translate(0.00012207)"/>
        </clipPath>
    </defs>
</svg>
