<svg width="54" height="53" viewBox="0 0 54 53" fill="none" xmlns="http://www.w3.org/2000/svg">
    <g clip-path="url(#clip0)">
        <rect width="53.9743" height="52.9559" transform="translate(0.00012207)" fill="white"/>
        <path d="M16.1094 30.1306C17.4627 31.9296 19.0176 33.5205 21.0264 34.6461C23.3013 35.9218 25.7505 36.3065 28.3336 36.1892C29.5403 36.1325 29.9033 35.8237 29.959 34.6439C29.9964 33.8357 30.0916 33.0296 30.4972 32.3032C30.8958 31.5909 31.5005 31.4562 32.1982 31.8993C32.5455 32.1232 32.8381 32.4035 33.115 32.7033C33.7949 33.4314 34.4531 34.1854 35.1573 34.8896C36.0428 35.7742 37.0931 36.2954 38.4107 36.1892L43.516 36.1913C44.3376 36.1367 44.7649 35.1485 44.2933 34.246C43.9612 33.616 43.5251 33.0556 43.0643 32.5118C42.021 31.2822 40.7916 30.2342 39.6292 29.1219C38.5816 28.1183 38.515 27.5357 39.3566 26.3777C40.2778 25.1126 41.2655 23.8979 42.1936 22.6397C43.0596 21.4642 43.9481 20.2905 44.4015 18.8847C44.6919 17.9873 44.435 17.5919 43.5008 17.4333C43.3391 17.4072 43.1708 17.4072 43.007 17.4072L37.4517 17.4004C36.7675 17.3898 36.391 17.6832 36.1493 18.2782C35.8215 19.0826 35.4851 19.8866 35.0947 20.6603C34.2135 22.4205 33.2276 24.1218 31.8456 25.5605C31.54 25.8774 31.201 26.2796 30.6919 26.1145C30.0564 25.8863 29.8681 24.8567 29.879 24.5091L29.8742 18.2176C29.7507 17.3207 29.5464 16.9185 28.6366 16.744H22.8666C22.0985 16.744 21.7107 17.0379 21.2986 17.5092C21.0638 17.7834 20.9904 17.9592 21.4781 18.0504C22.4345 18.2283 22.9774 18.8369 23.1192 19.7782C23.3474 21.2843 23.3317 22.7962 23.1992 24.3065C23.1613 24.7475 23.084 25.1869 22.9062 25.5997C22.6275 26.2493 22.1754 26.3798 21.5842 25.9802C21.0508 25.6193 20.6743 25.1109 20.3039 24.6004C18.9198 22.6811 17.8169 20.6129 16.9153 18.4394C16.6563 17.8112 16.2068 17.4311 15.529 17.42C13.8632 17.394 12.1956 17.3902 10.5276 17.4222C9.52649 17.4397 9.2274 17.9178 9.63734 18.8109C11.4514 22.7724 13.4715 26.6229 16.1094 30.1306Z" fill="black"/>
        <path d="M0.00012207 0V52.9559H53.9744V0H0.00012207ZM50.6358 49.6803H3.33874V3.27562H50.6358V49.6803Z" fill="black"/>
    </g>
    <defs>
        <clipPath id="clip0">
            <rect width="53.9743" height="52.9559" fill="white" transform="translate(0.00012207)"/>
        </clipPath>
    </defs>
</svg>
