<svg width="53" height="53" viewBox="0 0 53 53" fill="none" xmlns="http://www.w3.org/2000/svg">
    <g clip-path="url(#clip0)">
        <rect width="52.9559" height="52.9559" transform="translate(0.00012207)" fill="#fff"/>
        <path d="M0.00012207 0V52.9559H52.956V0H0.00012207ZM49.6804 49.6803H3.27574V3.27562H49.6804V49.6803Z" fill="black"/>
        <path d="M34.9982 9.28516H17.9585C13.1746 9.28516 9.28317 13.1771 9.28317 17.9604V35.0002C9.28317 39.784 13.1746 43.6749 17.9585 43.6749H34.9982C39.7821 43.6749 43.6729 39.784 43.6729 35.0002V17.9604C43.6729 13.1771 39.7821 9.28516 34.9982 9.28516ZM39.9308 35.0002C39.9308 37.7202 37.7177 39.9333 34.9982 39.9333H17.9585C15.2389 39.9333 13.0258 37.7202 13.0258 35.0002V17.9604C13.0258 15.2409 15.2389 13.0283 17.9585 13.0283H34.9982C37.7177 13.0283 39.9308 15.2409 39.9308 17.9604V35.0002Z" fill="black"/>
        <path d="M35.6198 19.456C34.464 19.456 33.5235 18.5161 33.5235 17.3603C33.5235 16.2049 34.464 15.265 35.6198 15.265C36.7757 15.265 37.7156 16.2049 37.7156 17.3603C37.7156 18.5161 36.7757 19.456 35.6198 19.456Z" fill="black"/>
        <path d="M26.4775 17.6238C21.5945 17.6238 17.621 21.5967 17.621 26.4803C17.621 31.3639 21.5945 35.3374 26.4775 35.3374C31.3616 35.3374 35.3351 31.3639 35.3351 26.4803C35.3351 21.5973 31.3616 17.6238 26.4775 17.6238ZM26.4775 31.5958C23.6588 31.5958 21.3631 29.3006 21.3631 26.4803C21.3631 23.6611 23.6588 21.367 26.4775 21.367C29.2978 21.367 31.5919 23.6611 31.5919 26.4803C31.5919 29.3006 29.2978 31.5958 26.4775 31.5958Z" fill="black"/>
    </g>
    <defs>
        <clipPath id="clip0">
            <rect width="52.9559" height="52.9559" fill="white" transform="translate(0.00012207)"/>
        </clipPath>
    </defs>
</svg>
